<?xml version="1.0" standalone="no"?>
<!DOCTYPE svg PUBLIC "-//W3C//DTD SVG 1.1//EN" "http://www.w3.org/Graphics/SVG/1.1/DTD/svg11.dtd" >
<svg xmlns="http://www.w3.org/2000/svg">
<metadata>Generated by IcoMoon</metadata>
<defs>
<font id="icomoon" horiz-adv-x="1024">
<font-face units-per-em="1024" ascent="960" descent="-64" />
<missing-glyph horiz-adv-x="1024" />
<glyph unicode="&#x20;" horiz-adv-x="512" d="" />
<glyph unicode="&#xe900;" glyph-name="add" d="M552 488v472h-80v-472h-472v-80h472v-472h80v472h472v80h-472z" />
<glyph unicode="&#xe901;" glyph-name="avi" d="M368.76 209.526l-50.378-155.041h45.837l7.817 28.938h50.166l7.605-28.938h45.625l-51.012 155.041h-55.659zM380.696 117.643c6.407 24.217 10.543 40.447 12.409 48.688 1.867 8.235 3.115 14.151 3.749 17.745 0.705-3.875 2.166-10.282 4.383-19.222 2.217-8.943 4.1-16.229 5.648-21.865l6.655-25.347h-32.845zM642.2 208.892h41.927v-154.407h-41.927v154.407zM507.282 766.128c-123.155 0-223.348-100.193-223.348-223.345 0-123.155 100.193-223.348 223.348-223.348s223.345 100.196 223.345 223.348c0 123.152-100.19 223.345-223.345 223.345zM507.282 367.705c-96.537 0-175.075 78.538-175.075 175.075 0 96.534 78.538 175.071 175.075 175.071 96.534 0 175.071-78.538 175.071-175.071 0-96.537-78.538-175.075-175.071-175.075zM557.39 130.21c-1.13-4.226-2.43-10.034-3.91-17.427-1.477-7.392-2.465-13.555-2.958-18.482-0.422 6.829-2.816 18.942-7.18 36.334l-21.015 78.258h-46.893l50.378-154.407h49.11l50.59 154.407h-46.684l-21.44-78.682zM911.237 790.326l-162.598 162.604c-4.528 4.528-10.665 7.070-17.069 7.070h-601.74c-13.33 0-24.137-10.807-24.137-24.137v-975.727c0-13.33 10.807-24.137 24.137-24.137h764.341c13.333 0 24.137 10.807 24.137 24.137v813.126c0 6.401-2.542 12.538-7.070 17.063zM755.706 877.594l80.192-80.195h-80.192v80.195zM153.966 911.727h553.47v-33.029h-553.47v33.029zM870.034-15.727h-716.068v846.151h553.47v-57.165c0-13.333 10.804-24.137 24.137-24.137h138.461v-764.849zM604.546 584.411l-112.219 72.613c-9.503 6.144-19.181 9.262-28.768 9.262-19.982 0-41.489-14.862-41.489-47.495v-152.022c0-32.633 21.504-47.495 41.483-47.495 9.59 0 19.274 3.122 28.777 9.272l112.207 72.613c15.663 10.125 24.648 25.292 24.652 41.615 0.006 16.323-8.976 31.5-24.642 41.637zM578.321 541.695l-107.981-69.877v141.933l107.981-69.871c0.608-0.393 1.104-0.763 1.503-1.094-0.399-0.331-0.895-0.698-1.503-1.091z" />
<glyph unicode="&#xe902;" glyph-name="calendar" d="M904 880h-48v80h-80v-80h-528v80h-80v-80h-48c-66.242-0.080-119.92-53.758-120-119.992v-704.008c0.080-66.242 53.758-119.92 119.992-120h784.008c66.242 0.080 119.92 53.758 120 119.992v704.008c-0.080 66.242-53.758 119.92-119.992 120h-0.008zM120 800h48v-80h80v80h528v-80h80v80h48c22.091 0 40-17.909 40-40v0-96h-864v96c0 22.091 17.909 40 40 40v0zM904 16h-784c-22.091 0-40 17.909-40 40v0 528h864v-528c0-22.091-17.909-40-40-40v0zM152 500h80v-80h-80v80zM312 500h80v-80h-80v80zM472 500h80v-80h-80v80zM632 500h80v-80h-80v80zM792 500h80v-80h-80v80zM152 340h80v-80h-80v80zM312 340h80v-80h-80v80zM472 340h80v-80h-80v80zM632 340h80v-80h-80v80zM152 180h80v-80h-80v80zM312 180h80v-80h-80v80zM472 180h80v-80h-80v80zM632 180h80v-80h-80v80zM792 340h80v-80h-80v80z" />
<glyph unicode="&#xe903;" glyph-name="checklist" horiz-adv-x="1023" d="M439.62 476.4h211.82v-80h-211.82zM651.44 716.2h-211.82v-80h211.82zM361.7 558.8l-97.82-110.96-48.68 45.72-54.72-58.28 108.8-102.16 152.36 172.88zM215.2 253.76l-54.72-58.28 108.8-102.16 152.36 172.82-60 52.86-97.76-111zM361.7 800.58l-97.82-110.94-48.68 45.7-54.72-58.26 108.8-102.16 152.36 172.8zM1023.34 289.52l-268.5-276c-15.128-15.080-33.651-26.764-54.322-33.805l-0.998-0.295-1.9-0.62-190.82-42.8 43.2 190.32 0.6 1.82c7.332 21.58 18.978 40.027 34.004 55.104l-0.004-0.004 268.52 276.12zM911.020 288.68l-57.020 56.9-212.68-218.66c-1.48-1.515-2.894-3.118-4.222-4.792l-0.098-0.128 56.46-56.48c1.715 1.37 3.248 2.744 4.699 4.199l0.001 0.001zM80 56.76v783.24c0 22.091 17.909 40 40 40v0h571.2c22.091 0 40-17.909 40-40v0-391.4l80 82.18v309.22c0 66.274-53.726 120-120 120v0h-571.2c-66.274 0-120-53.726-120-120v0-783.24c0.057-66.231 53.761-119.9 120-119.9h305.040l18.16 80h-323.2c0 0 0 0 0 0-22.056 0-39.943 17.852-40 39.895v0.005z" />
<glyph unicode="&#xe904;" glyph-name="cirle_menu" d="M512 576c-70.692 0-128-57.308-128-128s57.308-128 128-128c70.692 0 128 57.308 128 128v0c-0.080 70.66-57.34 127.92-127.993 128h-0.007zM512 362.66c-47.132 0-85.34 38.208-85.34 85.34s38.208 85.34 85.34 85.34c47.132 0 85.34-38.208 85.34-85.34v0c-0.057-47.109-38.231-85.283-85.335-85.34h-0.005zM896 576c-70.692 0-128-57.308-128-128s57.308-128 128-128c70.692 0 128 57.308 128 128v0c-0.080 70.66-57.34 127.92-127.993 128h-0.007zM896 362.66c-47.132 0-85.34 38.208-85.34 85.34s38.208 85.34 85.34 85.34c47.132 0 85.34-38.208 85.34-85.34v0c-0.057-47.109-38.231-85.283-85.335-85.34h-0.005zM128 576c-70.692 0-128-57.308-128-128s57.308-128 128-128c70.692 0 128 57.308 128 128v0c-0.080 70.66-57.34 127.92-127.993 128h-0.007zM128 362.66c-47.132 0-85.34 38.208-85.34 85.34s38.208 85.34 85.34 85.34c47.132 0 85.34-38.208 85.34-85.34v0c-0.057-47.109-38.231-85.283-85.335-85.34h-0.005z" />
<glyph unicode="&#xe905;" glyph-name="clock" d="M1001.999 284.515h-104.732v191.366c-0.257 201.731-157.336 366.692-355.857 379.532l-1.124 0.058v77.662c0 13.439-10.894 24.333-24.333 24.333s-24.333-10.894-24.333-24.333v0-77.56c-201.99-10.101-361.986-176.152-362.354-379.655v-124.335c0-13.439 10.894-24.333 24.333-24.333s24.333 10.894 24.333 24.333v0 124.299c0.173 183.087 148.547 331.461 331.617 331.634h7.215c183.075-0.202 331.432-148.559 331.634-331.615v-191.183h-824.067c0 0-0.001 0-0.001 0-13.439 0-24.333-10.894-24.333-24.333 0-0.089 0-0.178 0.001-0.267v0.014-141.028c0-13.439 10.894-24.333 24.333-24.333v0h977.667c13.439 0 24.333 10.894 24.333 24.333v0 141.028c0 0.015 0 0.033 0 0.051 0 13.439-10.894 24.333-24.333 24.333 0 0 0 0 0 0v0zM977.616 143.436h-928.95v92.413h928.95zM600.916 75.406c-13.439 0-24.333-10.894-24.333-24.333v0c-0.058-34.525-28.030-62.498-62.55-62.555h-1.78c-34.515 0.058-62.476 28.036-62.505 62.553v0.003c0 13.439-10.894 24.333-24.333 24.333s-24.333-10.894-24.333-24.333v0c0.172-61.338 49.836-111.019 111.151-111.221h1.793c61.356 0.172 111.048 49.865 111.221 111.204v0.017c0 13.439-10.894 24.333-24.333 24.333v0z" />
<glyph unicode="&#xe906;" glyph-name="close" d="M1009.024 944.976c-9.255 9.278-22.054 15.018-36.193 15.018s-26.937-5.74-36.192-15.017l-424.616-424.568-424.615 424.567c-9.262 9.262-22.058 14.991-36.193 14.991-28.268 0-51.184-22.916-51.184-51.184 0-14.134 5.729-26.93 14.991-36.193l424.567-424.615-424.567-424.615c-9.262-9.262-14.991-22.058-14.991-36.193 0-28.268 22.916-51.184 51.184-51.184 14.134 0 26.93 5.729 36.193 14.991l424.615 424.615 424.615-424.615c9.262-9.262 22.058-14.991 36.193-14.991 28.268 0 51.184 22.916 51.184 51.184 0 14.134-5.729 26.93-14.991 36.193l-424.615 424.615 424.615 424.615c9.278 9.255 15.018 22.054 15.018 36.193s-5.74 26.937-15.017 36.192l-0.001 0.001z" />
<glyph unicode="&#xe907;" glyph-name="doc" d="M911.237 790.329l-162.598 162.601c-4.528 4.528-10.665 7.070-17.069 7.070h-601.74c-13.333 0-24.137-10.807-24.137-24.137v-975.727c0-13.33 10.804-24.137 24.137-24.137h764.341c13.333 0 24.137 10.807 24.137 24.137v813.126c0 6.401-2.542 12.538-7.070 17.066zM755.706 877.591l80.192-80.195h-80.192v80.195zM153.966 911.727h553.47v-33.029h-553.47v33.029zM870.034-15.727h-716.068v846.151h553.47v-57.165c0-13.33 10.804-24.137 24.137-24.137h138.461v-764.849zM343.996 208.892h-53.442v-154.407h49.953c25.698 0 45.644 6.971 59.83 20.912s21.282 33.795 21.282 59.566c0 23.937-6.745 42.246-20.227 54.919s-32.613 19.010-57.397 19.010zM369.446 99.74c-5.912-7.36-15.206-11.039-27.879-11.039h-9.294v86.496h12.142c11.409 0 19.911-3.415 25.508-10.244 5.596-6.832 8.396-17.32 8.396-31.474 0.003-15.135-2.958-26.383-8.873-33.74zM518.89 211.322c-24.5 0-43.182-6.778-56.029-20.33-12.847-13.555-19.271-33.18-19.271-58.877 0-25.981 6.456-45.77 19.377-59.357 12.918-13.591 31.49-20.381 55.711-20.381 24.578 0 43.234 6.758 55.981 20.278 12.741 13.52 19.113 33.267 19.113 59.251 0 26.052-6.337 45.802-19.007 59.251-12.68 13.439-31.304 20.165-55.875 20.165zM542.18 97.999c-5.104-7.254-12.937-10.878-23.503-10.878-20.767 0-31.152 14.926-31.152 44.778 0 30.135 10.453 45.203 31.365 45.203 10.276 0 18.009-3.682 23.181-11.035 5.172-7.36 7.762-18.746 7.762-34.168 0.003-15.351-2.549-26.65-7.653-33.901zM340.462 351.099h338.271c13.333 0 24.137 10.807 24.137 24.137v338.267c0 13.33-10.804 24.137-24.137 24.137h-338.271c-13.333 0-24.137-10.807-24.137-24.137v-338.267c0-13.33 10.804-24.137 24.137-24.137zM364.596 689.367v0h290.001v-45.155h-31.571l-44.984-113.121c-12.171-31.474-18.756-48.595-19.744-51.366 2.571 15.834 3.859 31.471 3.859 46.912v117.575h-49.879l-49.731-114.607-13.957-34.441-5.938-15.438c1.879 10.688 3.118 29.244 3.711 55.669l1.484 108.818h-54.925l7.273-217.040h64.432l37.56 88.331c8.409 21.379 14.25 38.648 17.517 51.81-1.287-16.725-1.931-32.762-1.931-48.1v-92.041h68.436l68.387 157.452v-185.251h-289.997v289.994zM690.409 176.894c6.546 0 12.673-0.917 18.376-2.748 5.706-1.831 11.405-4.084 17.108-6.758l12.78 32.845c-15.209 7.251-31.156 10.878-47.842 10.878-15.28 0-28.568-3.257-39.871-9.771s-19.959-15.827-25.981-27.934c-6.018-12.11-9.030-26.158-9.030-42.139 0-25.559 6.214-45.097 18.64-58.617s30.293-20.278 53.6-20.278c16.265 0 30.84 2.851 43.723 8.554v35.275c-6.478-2.678-12.921-4.963-19.325-6.864-6.407-1.899-13.027-2.851-19.856-2.851-22.602 0-33.901 14.855-33.901 44.569 0 14.292 2.777 25.504 8.342 33.637 5.564 8.136 13.311 12.204 23.239 12.204z" />
<glyph unicode="&#xe908;" glyph-name="docs" d="M904 800h-40v40c-0.080 66.242-53.758 119.92-119.992 120h-624.008c-66.242-0.080-119.92-53.758-120-119.992v-624.008c0.080-66.242 53.758-119.92 119.992-120h40.008v-40c0.080-66.242 53.758-119.92 119.992-120h459.668l284.34 285.72v458.28c-0.080 66.242-53.758 119.92-119.992 120h-0.008zM120 176c-22.091 0-40 17.909-40 40v0 624c0 22.091 17.909 40 40 40v0h624c22.091 0 40-17.909 40-40v0-40h-504c-66.242-0.080-119.92-53.758-120-119.992v-504.008zM240 56v624c0 22.091 17.909 40 40 40v0h624c22.091 0 40-17.909 40-40v0-401.78h-140.22c-66.247-0.068-119.932-53.753-120-119.993v-142.227h-403.78c-22.091 0-40 17.909-40 40v0zM887.76 198.22l-124-124.58v84.58c0 22.091 17.909 40 40 40v0zM824 520h-464v80h464zM824 360h-464v80h464zM604 280v-80h-244v80z" />
<glyph unicode="&#xe909;" glyph-name="email" d="M921.6 836.8h-819.2c-56.488-0.163-102.237-45.912-102.4-102.384v-573.456c0.163-56.488 45.912-102.237 102.384-102.4h819.216c56.488 0.163 102.237 45.912 102.4 102.384v573.456c-0.163 56.488-45.912 102.237-102.384 102.4h-0.016zM983.040 210.112l-106.496 118.784c-3.705 3.898-8.928 6.323-14.717 6.323-11.205 0-20.288-9.083-20.288-20.288 0-5.28 2.017-10.089 5.323-13.699l-0.014 0.015 136.192-151.552c-6.358-28.62-31.389-49.75-61.407-50.048h-819.233c-0.009 0-0.020 0-0.030 0-28.062 0-51.751 18.726-59.252 44.364l-0.109 0.436 237.568 247.808c3.292 3.594 5.309 8.403 5.309 13.683 0 11.205-9.083 20.288-20.288 20.288-5.79 0-11.013-2.425-14.709-6.315l-0.008-0.009-209.92-219.136v405.632l429.056-192.512c11.649-5.196 25.243-8.222 39.543-8.222 0.858 0 1.714 0.011 2.567 0.033l-0.126-0.003c15.15 0.158 29.557 3.152 42.776 8.474l-0.792-0.282 429.056 192.512zM983.040 650.432l-445.44-199.68c-7.536-3.396-16.337-5.375-25.6-5.375s-18.064 1.979-26.003 5.537l0.403-0.162-445.44 199.68v83.968c0.109 33.889 27.551 61.331 61.43 61.44h819.21c33.889-0.109 61.331-27.551 61.44-61.43v-0.010zM782.336 371.904c3.826-4.223 9.255-6.934 15.319-7.167l0.041-0.001c0.047 0 0.102-0.001 0.158-0.001 5.079 0 9.703 1.946 13.168 5.133l-0.014-0.013c4.139 3.648 6.737 8.962 6.737 14.883 0 5.426-2.181 10.342-5.715 13.919l0.002-0.002-18.432 21.376c-3.705 3.898-8.928 6.323-14.717 6.323-11.205 0-20.288-9.083-20.288-20.288 0-5.28 2.017-10.089 5.323-13.699l-0.014 0.015z" />
<glyph unicode="&#xe90a;" glyph-name="events" d="M827.84-28.42l-315.84 162.76-315.84-162.76 60.36 344.86-256.52 245.080 354.4 50.48 157.6 313 157.6-313 354.4-50.48-256.52-245.080zM512 224.48l209.080-107.74-40 228 168.16 160.66-232.38 33.18-104.86 208.26-104.86-208.26-232.48-33.12 168.16-160.66-39.9-228z" />
<glyph unicode="&#xe90b;" glyph-name="grid" d="M353.58 488h-235.16c-65.37 0.080-118.34 53.050-118.42 118.412v235.168c0.080 65.37 53.050 118.34 118.412 118.42h235.168c65.37-0.080 118.34-53.050 118.42-118.412v-235.168c-0.080-65.37-53.050-118.34-118.412-118.42h-0.008zM118.42 880c-21.21-0.023-38.397-17.21-38.42-38.418v-235.162c0.023-21.21 17.21-38.397 38.418-38.42h235.162c21.21 0.023 38.397 17.21 38.42 38.418v235.162c-0.023 21.21-17.21 38.397-38.418 38.42h-0.002zM904 488h-232c-66.242 0.080-119.92 53.758-120 119.992v232.008c0.080 66.242 53.758 119.92 119.992 120h232.008c66.242-0.080 119.92-53.758 120-119.992v-232.008c-0.080-66.242-53.758-119.92-119.992-120h-0.008zM672 880c-22.091 0-40-17.909-40-40v0-232c0-22.091 17.909-40 40-40v0h232c22.091 0 40 17.909 40 40v0 232c0 22.091-17.909 40-40 40v0zM353.58-64h-235.16c-65.37 0.080-118.34 53.050-118.42 118.412v235.168c0.080 65.37 53.050 118.34 118.412 118.42h235.168c65.37-0.080 118.34-53.050 118.42-118.412v-235.168c-0.080-65.37-53.050-118.34-118.412-118.42h-0.008zM118.42 328c-21.21-0.023-38.397-17.21-38.42-38.418v-235.162c0.023-21.21 17.21-38.397 38.418-38.42h235.162c21.21 0.023 38.397 17.21 38.42 38.418v235.162c-0.023 21.21-17.21 38.397-38.418 38.42h-0.002zM904-64h-232c-66.242 0.080-119.92 53.758-120 119.992v232.008c0.080 66.242 53.758 119.92 119.992 120h232.008c66.242-0.080 119.92-53.758 120-119.992v-232.008c-0.080-66.242-53.758-119.92-119.992-120h-0.008zM672 328c-22.091 0-40-17.909-40-40v0-232c0-22.091 17.909-40 40-40v0h232c22.091 0 40 17.909 40 40v0 232c0 22.091-17.909 40-40 40v0z" />
<glyph unicode="&#xe90c;" glyph-name="help" d="M874 810c-92.093 89.514-217.955 144.708-356.708 144.708-282.77 0-512-229.23-512-512 0-138.754 55.195-264.616 144.826-356.83l-0.117 0.121c92.093-89.514 217.955-144.708 356.708-144.708 282.77 0 512 229.23 512 512 0 138.754-55.195 264.616-144.826 356.83l0.117-0.121zM944 448c0-0.067 0-0.145 0-0.224 0-30.475-3.153-60.213-9.151-88.906l0.491 2.81-154.2 46.9c1.82 11.846 2.86 25.512 2.86 39.42s-1.040 27.574-3.046 40.923l0.186-1.503 154.2 46.9c5.507-25.883 8.66-55.621 8.66-86.096 0-0.079 0-0.158 0-0.236v0.012zM912.1 610.86l-154.1-46.86c-27.216 56.512-71.507 101.19-126.101 128.185l-1.599 0.715 46.9 154.24c106.902-45.347 190.151-129.044 233.836-233.414l1.064-2.866zM512 256c-106.039 0-192 85.961-192 192s85.961 192 192 192c106.039 0 192-85.961 192-192v0c-0.125-105.988-86.012-191.875-191.988-192h-0.012zM600.76 870.82l-46.84-154c-12.59 2.062-27.1 3.24-41.886 3.24-13.445 0-26.662-0.974-39.585-2.856l1.471 0.176-46.92 154.2c25.561 5.354 54.934 8.42 85.023 8.42 31.422 0 62.063-3.343 91.587-9.693l-2.849 0.514zM350.38 848.6l46.84-154c-57.476-27.346-102.857-72.34-129.986-127.882l-0.714-1.618-154.18 46.9c45.384 107.881 129.813 191.842 235.161 235.542l2.879 1.058zM80 448c0 0.074 0 0.162 0 0.251 0 30.875 3.241 60.993 9.401 90.032l-0.501-2.823 154.14-46.88c-1.935-12.199-3.040-26.265-3.040-40.59s1.105-28.391 3.235-42.119l-0.195 1.529-154.14-46.86c-5.659 26.217-8.9 56.334-8.9 87.209 0 0.088 0 0.176 0 0.265v-0.014zM112.34 284l154.18 46.88c27.843-57.16 73.224-102.154 129.048-128.79l1.652-0.71-46.84-154c-108.23 44.763-192.66 128.731-236.971 233.765l-1.069 2.855zM427 24.42l47 154.26c11.47-1.706 24.709-2.68 38.176-2.68 14.763 0 29.253 1.171 43.382 3.425l-1.557-0.205 46.84-154c-26.675-5.837-57.316-9.18-88.737-9.18-30.089 0-59.461 3.066-87.823 8.901l2.8-0.482zM677.18 48.86l-46.9 154.24c56.197 27.712 100.494 72.389 127.008 127.266l0.712 1.634 154.12-46.86c-44.752-107.246-128.018-190.947-232.098-235.206l-2.842-1.074z" />
<glyph unicode="&#xe90d;" glyph-name="home" d="M512 936l-512-444.64 52.42-60.34 48 41.62v-392.9c0.057-66.231 53.761-119.9 120-119.9h223.58v391.68h140v-391.68h219.76c66.196 0.057 119.843 53.704 119.9 119.894v392.906l48-41.62 52.34 60.34zM843.72 79.74c0-22.091-17.909-40-40-40v0h-139.84v391.7h-299.76v-391.66h-143.88c-22.091 0-40 17.909-40 40v0 462.22l331.76 288.14 331.72-288.14z" />
<glyph unicode="&#xe90e;" glyph-name="jpg" d="M911.237 790.329l-162.598 162.601c-4.528 4.528-10.665 7.070-17.069 7.070h-601.74c-13.33 0-24.137-10.807-24.137-24.137v-975.727c0-13.33 10.807-24.137 24.137-24.137h764.341c13.333 0 24.137 10.807 24.137 24.137v813.126c0 6.401-2.542 12.538-7.070 17.066zM755.706 877.591l80.192-80.195h-80.192v80.195zM153.966 911.727h553.47v-33.029h-553.47v33.029zM870.034-15.727h-716.068v846.151h553.47v-57.165c0-5.065 1.567-9.764 4.235-13.645-2.826 1.159-5.915 1.809-9.159 1.809h-385.833c-13.33 0-24.137-10.807-24.137-24.137v-385.833c0-13.33 10.807-24.137 24.137-24.137h385.833c13.333 0 24.137 10.807 24.137 24.137v385.833c0 5.069-1.567 9.764-4.235 13.648 2.826-1.159 5.915-1.812 9.159-1.812h138.461v-764.849zM639.612 553.361c-4.348 7.334-12.239 11.833-20.764 11.833-8.528 0-16.419-4.496-20.764-11.83l-55.865-94.271-103.91 175.351c-4.345 7.334-12.239 11.83-20.764 11.83s-16.419-4.496-20.764-11.83l-55.962-94.436v173.14h337.559v-225.205l-38.767 65.417zM678.376 393.255v-17.665h-337.559v69.729l76.726 129.472 103.91-175.351c4.348-7.334 12.239-11.83 20.764-11.83 8.522 0 16.419 4.496 20.764 11.83l55.865 94.271 59.531-100.457zM513.348 196.113c-9.787 8.519-24.433 12.78-43.935 12.78h-53.442v-154.407h41.718v51.224h11.724c18.73 0 33.18 4.699 43.356 14.099 10.17 9.397 15.261 22.724 15.261 39.974 0 15.702-4.895 27.812-14.682 36.331zM480.236 144.995c-3.698-3.521-8.673-5.281-14.942-5.281h-7.605v35.484h10.775c11.547 0 17.324-5.21 17.324-15.631-0.003-6.192-1.85-11.051-5.551-14.572zM614.626 112.677v0h27.567v-24.185c-5.21-1.197-10.916-1.796-17.108-1.796-11.338 0-20.014 3.785-26.035 11.354-6.018 7.569-9.030 18.572-9.030 33.006 0 14.714 3.324 26.032 9.983 33.955 6.652 7.92 16.069 11.882 28.25 11.882 13.307 0 25.524-2.748 36.649-8.239l13.201 32.742c-6.407 2.813-13.925 5.14-22.55 6.971-8.628 1.828-17.797 2.745-27.513 2.745-25.63 0-45.557-6.935-59.778-20.806-14.221-13.874-21.334-33.27-21.334-58.195 0-25.559 6.494-45.242 19.486-59.038 12.992-13.8 31.384-20.7 55.183-20.7 21.684 0 41.576 3.096 59.672 9.294v83.223h-66.643v-32.214zM340.675 65.997h-0.006c0-10.070-1.48-17.179-4.435-21.334-2.958-4.152-7.888-6.23-14.785-6.23-2.958 0-5.703 0.264-8.239 0.792s-4.927 1.004-7.18 1.426v-32.424c6.832-1.477 14.048-2.217 21.652-2.217 18.305 0 32.037 5.371 41.19 16.107s13.729 26.56 13.729 47.472v139.307h-41.927v-142.899z" />
<glyph unicode="&#xe90f;" glyph-name="list" d="M904 409h-530c-3.46 0-6.86-0.18-10.24-0.46-3.36 0.28-6.74 0.46-10.18 0.46h-235.16c-65.37-0.080-118.34-53.050-118.42-118.412v-235.168c0.080-65.37 53.050-118.34 118.412-118.42h235.168c3.44 0 6.82 0.18 10.18 0.46 3.38-0.28 6.78-0.46 10.24-0.46h530c66.242 0.080 119.92 53.758 120 119.992v232.008c-0.080 66.242-53.758 119.92-119.992 120h-0.008zM944 57c0-22.091-17.909-40-40-40v0h-785.58c-21.21 0.023-38.397 17.21-38.42 38.418v235.162c0.023 21.21 17.21 38.397 38.418 38.42h785.582c22.091 0 40-17.909 40-40v0zM904 959h-530c-3.46 0-6.86-0.18-10.24-0.46-3.36 0.28-6.74 0.46-10.18 0.46h-235.16c-65.37-0.080-118.34-53.050-118.42-118.412v-235.168c0.080-65.37 53.050-118.34 118.412-118.42h235.168c3.44 0 6.82 0.18 10.18 0.46 3.38-0.28 6.78-0.46 10.24-0.46h530c66.242 0.080 119.92 53.758 120 119.992v232.008c-0.080 66.242-53.758 119.92-119.992 120h-0.008zM944 607c0-22.091-17.909-40-40-40v0h-785.58c-21.21 0.023-38.397 17.21-38.42 38.418v235.162c0.023 21.21 17.21 38.397 38.418 38.42h785.582c22.091 0 40-17.909 40-40v0z" />
<glyph unicode="&#xe910;" glyph-name="logo" d="M539.471 340.727h-10.169l-75.282 79.378v-158.685h161.227v158.685l-75.776-79.378zM675.275 631.614h-281.212l139.335-154.589 141.877 154.589zM0 446.517c0 102.188 82.414 185.097 192.23 185.097s191.17-81.849 191.17-185.097-82.344-185.097-192.23-185.097-191.17 81.849-191.17 185.097zM282.483 446.517c0 51.341-37.146 96.115-91.807 96.115s-89.476-43.714-89.476-96.115c0-51.341 37.146-96.115 91.030-96.115s90.253 43.714 90.253 96.115zM685.868 446.517c0 103.742 79.801 185.097 187.639 185.097 72.81 0 118.007-31.497 149.504-75.282l-72.245-55.932c-20.339 25.423-44.209 41.172-78.248 41.172-49.858 0-84.745-42.372-84.745-95.055s35.31-95.055 84.745-95.055c37.076 0 58.968 17.231 80.296 43.22l74.222-52.612c-33.545-46.327-78.813-80.366-157.625-80.366-101.694-0.282-183.543 77.542-183.543 184.814z" />
<glyph unicode="&#xe911;" glyph-name="logout" horiz-adv-x="1025" d="M120.066-64h783.929c66.31 0 120.066 53.755 120.066 120.066v0 160.088h-80.044v-160.088c0-22.103-17.918-40.022-40.022-40.022v0h-783.929c-22.103 0-40.022 17.918-40.022 40.022v0 783.869c0 22.103 17.918 40.022 40.022 40.022v0h783.929c22.103 0 40.022-17.918 40.022-40.022v0-159.987h80.044v159.987c0 66.31-53.755 120.066-120.066 120.066v0h-783.929c-66.31 0-120.066-53.755-120.066-120.066v0-783.929c0.034-66.285 53.776-120.006 120.066-120.006v0zM776.004 199.444l248.556 248.556-248.556 248.576-56.571-56.571 151.983-152.003h-575.415v-80.004h575.415l-151.983-152.003 56.571-56.551z" />
<glyph unicode="&#xe912;" glyph-name="menu_burger" d="M116.357 727.264h791.286c63.585 0.898 114.786 52.654 114.786 116.368s-51.2 115.47-114.701 116.367l-0.085 0.001h-791.286c-63.585-0.898-114.786-52.654-114.786-116.368s51.2-115.47 114.701-116.367l0.085-0.001zM116.357 913.461h791.286c38.56 0 69.819-31.259 69.819-69.819s-31.259-69.819-69.819-69.819v0h-791.286c-38.56 0-69.819 31.259-69.819 69.819s31.259 69.819 69.819 69.819v0zM907.643 564.368h-791.286c-63.585-0.898-114.786-52.654-114.786-116.368s51.2-115.47 114.701-116.367l0.085-0.001h791.286c63.585 0.898 114.786 52.654 114.786 116.368s-51.2 115.47-114.701 116.367l-0.085 0.001zM907.643 378.17h-791.286c-38.56 0-69.819 31.259-69.819 69.819s31.259 69.819 69.819 69.819v0h791.286c38.56 0 69.819-31.259 69.819-69.819s-31.259-69.819-69.819-69.819v0zM907.643 168.714h-791.286c-64.262 0-116.357-52.095-116.357-116.357s52.095-116.357 116.357-116.357v0h791.286c64.262 0 116.357 52.095 116.357 116.357s-52.095 116.357-116.357 116.357v0zM907.643-17.461h-791.286c-38.56 0-69.819 31.259-69.819 69.819s31.259 69.819 69.819 69.819v0h791.286c38.56 0 69.819-31.259 69.819-69.819s-31.259-69.819-69.819-69.819v0z" />
<glyph unicode="&#xe913;" glyph-name="mp3" d="M911.237 790.329l-162.598 162.601c-4.528 4.528-10.665 7.070-17.069 7.070h-601.74c-13.333 0-24.137-10.807-24.137-24.137v-975.727c0-13.33 10.804-24.137 24.137-24.137h764.341c13.333 0 24.137 10.807 24.137 24.137v813.126c0 6.401-2.542 12.538-7.070 17.066zM755.706 877.591l80.192-80.195h-80.192v80.195zM153.966 911.727h553.47v-33.029h-553.47v33.029zM870.034-15.727h-716.068v846.151h553.47v-57.165c0-13.33 10.804-24.137 24.137-24.137h138.461v-764.849zM698.329 135.176v0.634c11.055 3.096 19.502 8.081 25.347 14.942 5.841 6.864 8.766 15.087 8.766 24.661 0 11.125-4.541 19.853-13.623 26.193-9.082 6.337-21.617 9.507-37.599 9.507-11.058 0-20.857-1.197-29.415-3.592-8.554-2.394-16.918-6.407-25.083-12.039l17.32-27.883c10.559 6.617 20.767 9.928 30.628 9.928 5.284 0 9.487-0.988 12.622-2.958 3.135-1.973 4.702-5.001 4.702-9.082 0-10.845-10.598-16.265-31.793-16.265h-9.716v-31.368h9.503c7.817 0 14.151-0.579 19.010-1.744 4.86-1.162 8.38-2.887 10.562-5.175s3.273-5.545 3.273-9.771c0-5.49-2.092-9.523-6.282-12.094s-10.862-3.855-20.014-3.855c-5.915 0-12.377 0.827-19.383 2.481s-13.887 4.206-20.648 7.656v-34.641c8.242-3.167 15.895-5.352 22.972-6.549s14.768-1.796 23.078-1.796c20.207 0 35.999 4.119 47.369 12.355 11.37 8.239 17.057 19.538 17.057 33.904 0 21.128-12.883 33.309-38.654 36.549zM378.634 99.264h-0.843l-32.214 109.629h-55.55v-154.407h36.965v67.065c0 10.488-0.74 25.205-2.217 44.148h0.949l31.58-111.212h39.713l31.156 111h0.953c-0.846-16.757-1.319-27.284-1.426-31.58-0.106-4.293-0.158-8.203-0.158-11.724v-67.699h38.335v154.407h-55.659l-31.584-109.626zM507.845 782.795c-132.343 0-240.012-107.669-240.012-240.015s107.669-240.015 240.012-240.015c132.346 0 240.018 107.669 240.018 240.015 0 132.343-107.672 240.015-240.018 240.015zM507.845 351.038c-105.725 0-191.739 86.013-191.739 191.742 0 105.725 86.017 191.742 191.739 191.742 105.732 0 191.745-86.013 191.745-191.742s-86.017-191.742-191.745-191.742zM628.442 680.459c-0.087 0.666-0.19 1.329-0.328 1.976-0.048 0.212-0.109 0.425-0.164 0.637-0.151 0.611-0.315 1.216-0.508 1.812-0.077 0.232-0.171 0.463-0.254 0.692-0.203 0.557-0.415 1.107-0.66 1.645-0.113 0.251-0.235 0.496-0.357 0.747-0.245 0.496-0.502 0.985-0.779 1.461-0.154 0.264-0.312 0.525-0.473 0.782-0.28 0.441-0.576 0.872-0.882 1.291-0.19 0.264-0.377 0.521-0.579 0.776-0.328 0.412-0.669 0.805-1.020 1.191-0.206 0.232-0.412 0.47-0.628 0.692-0.431 0.441-0.885 0.859-1.352 1.268-0.138 0.122-0.261 0.257-0.402 0.377-0.023 0.019-0.048 0.035-0.074 0.055-0.647 0.541-1.319 1.046-2.024 1.519-0.1 0.068-0.206 0.122-0.309 0.187-0.605 0.393-1.22 0.76-1.854 1.094-0.212 0.109-0.428 0.203-0.64 0.309-0.541 0.267-1.085 0.521-1.648 0.743-0.251 0.1-0.502 0.187-0.753 0.277-0.534 0.193-1.075 0.373-1.622 0.531-0.286 0.080-0.573 0.148-0.856 0.219-0.521 0.129-1.043 0.241-1.577 0.331-0.328 0.058-0.653 0.106-0.982 0.151-0.489 0.064-0.988 0.113-1.484 0.148-0.37 0.026-0.74 0.048-1.114 0.055-0.196 0.003-0.386 0.029-0.586 0.029-0.293 0-0.576-0.032-0.862-0.045-0.364-0.013-0.727-0.026-1.091-0.055-0.534-0.042-1.059-0.113-1.583-0.19-0.216-0.032-0.434-0.039-0.653-0.077l-136.623-24.088c-0.103-0.019-0.203-0.048-0.309-0.068-0.373-0.071-0.74-0.158-1.11-0.248-0.37-0.087-0.74-0.177-1.101-0.283-0.364-0.106-0.727-0.222-1.085-0.344s-0.714-0.251-1.065-0.389c-0.338-0.135-0.669-0.27-0.998-0.418-0.367-0.164-0.731-0.341-1.085-0.525-0.299-0.151-0.599-0.303-0.885-0.467-0.377-0.212-0.743-0.441-1.11-0.673-0.254-0.164-0.508-0.319-0.76-0.489-0.399-0.277-0.782-0.573-1.162-0.872-0.196-0.154-0.399-0.299-0.592-0.457-0.502-0.418-0.985-0.859-1.448-1.316-0.058-0.058-0.122-0.109-0.18-0.167-0.515-0.518-1.007-1.059-1.471-1.619-0.171-0.203-0.325-0.422-0.486-0.631-0.283-0.367-0.57-0.734-0.834-1.114-0.187-0.267-0.351-0.55-0.528-0.827-0.216-0.341-0.431-0.679-0.628-1.033-0.174-0.306-0.331-0.618-0.489-0.933-0.174-0.344-0.341-0.689-0.502-1.046-0.145-0.325-0.283-0.653-0.415-0.988-0.145-0.364-0.277-0.731-0.402-1.101-0.113-0.335-0.222-0.666-0.325-1.007-0.116-0.396-0.212-0.801-0.312-1.207-0.074-0.325-0.158-0.644-0.219-0.972-0.090-0.47-0.154-0.949-0.216-1.426-0.039-0.277-0.084-0.55-0.113-0.83-0.071-0.766-0.116-1.542-0.116-2.324v-143.018c-2.652 0.267-5.349 0.457-8.142 0.457-5.294 0-10.742-0.489-16.204-1.451-36.62-6.459-64.236-31.976-64.236-59.36 0-26.18 23.725-45.184 56.412-45.184 5.294 0 10.746 0.486 16.207 1.451 35.365 6.237 62.257 30.258 64.059 56.56 0.106 0.917 0.177 1.847 0.177 2.797v4.383c2.34-24.043 25.224-41.1 56.177-41.1 5.297 0 10.749 0.489 16.207 1.451 35.368 6.237 62.26 30.255 64.062 56.557 0.106 0.917 0.177 1.847 0.177 2.797v187.748c0 0.872-0.051 1.735-0.145 2.587-0.023 0.187-0.064 0.37-0.087 0.56zM419.425 453.661c-4.319-0.763-8.699-0.866-11.795-0.492 4.106 3.209 10.948 6.877 20.178 8.506 4.312 0.76 8.692 0.862 11.795 0.492-4.11-3.215-10.952-6.881-20.178-8.506zM492.047 632.971l88.35 15.579v-7.441l-88.35-15.579v7.441zM556.048 477.749c-4.319-0.76-8.689-0.862-11.792-0.492 4.106 3.212 10.948 6.877 20.178 8.506 4.316 0.76 8.683 0.862 11.795 0.492-4.113-3.212-10.955-6.877-20.181-8.506zM580.397 534.293v0c-2.649 0.27-5.345 0.457-8.136 0.457-5.297 0-10.749-0.489-16.207-1.451-34.953-6.163-61.642-29.695-64.007-55.63v98.841l88.35 15.579v-57.796zM596.52 196.113c-9.79 8.519-24.436 12.78-43.935 12.78h-53.439v-154.407h41.718v51.224h11.724c18.727 0 33.18 4.699 43.356 14.099 10.173 9.397 15.261 22.724 15.261 39.974-0.006 15.702-4.905 27.812-14.685 36.331zM563.405 144.995c-3.695-3.521-8.676-5.281-14.942-5.281h-7.601v35.484h10.771c11.547 0 17.324-5.21 17.324-15.631-0.003-6.192-1.85-11.051-5.551-14.572z" />
<glyph unicode="&#xe914;" glyph-name="notes" d="M1003.099 813.711l-125.527 125.407c-12.951 12.917-30.824 20.904-50.563 20.904s-37.612-7.987-50.565-20.905l-671.177-671.537c-20.482-20.511-36.353-45.632-45.922-73.672l-0.401-1.352-0.6-1.8-58.343-254.815 256.775 58.843c29.43 9.94 54.587 25.801 75.129 46.287l671.255 671.595c12.931 12.929 20.93 30.792 20.93 50.523s-7.998 37.594-20.93 50.523v0zM130.248 146.412l80.345-80.265-104.166-23.781zM283.777 106.11l-113.487 113.387 554.793 555.033 113.487-113.367zM895.112 717.726l-113.487 113.387 45.403 45.423 113.507-113.367z" />
<glyph unicode="&#xe915;" glyph-name="pdf" d="M911.237 790.329l-162.598 162.601c-4.528 4.528-10.665 7.070-17.069 7.070h-601.74c-13.33 0-24.137-10.807-24.137-24.137v-975.727c0-13.33 10.807-24.137 24.137-24.137h764.341c13.333 0 24.137 10.807 24.137 24.137v813.126c0 6.401-2.542 12.538-7.070 17.066zM755.706 877.591l80.192-80.195h-80.192v80.195zM153.966 911.727h553.47v-33.029h-553.47v33.029zM870.034-15.727h-716.068v846.151h553.47v-57.165c0-13.33 10.804-24.137 24.137-24.137h138.461v-764.849zM649.128 486.767c-11.634 0.077-23.097-0.496-34.412-1.139-4.171-0.28-8.3-0.64-12.426-0.998-4.229 4.377-8.316 8.898-12.271 13.523-25.167 29.791-45.486 63.576-62.044 98.684 4.396 16.963 7.914 34.667 10.038 53.052 3.878 33.556 5.21 71.799-7.363 103.791-4.341 11.042-15.917 24.484-29.273 17.79-15.354-7.698-19.673-29.508-20.925-44.968-1.007-12.496-0.303-25.025 1.796-37.312 2.137-12.371 5.577-24.117 9.323-35.848 3.495-10.755 7.347-21.427 11.547-31.999-2.665-8.322-5.494-16.5-8.464-24.468-6.926-18.16-14.414-35.413-21.617-52.010-3.798-8.229-7.515-16.284-11.151-24.159-11.508-25.279-24.002-50.095-38.020-74.083-32.707-11.537-62.057-24.912-86.432-40.63-13.076-8.448-24.626-17.623-34.245-27.686-9.082-9.5-18.312-21.829-19.119-35.478-0.454-7.704 2.597-15.18 8.908-19.75 8.68-6.485 20.181-6.053 30.251-3.942 32.987 6.919 58.317 35.275 79.889 59.173 14.859 16.461 31.77 37.364 49.461 62.643 0.039 0.058 0.077 0.116 0.119 0.174 30.341 9.407 63.364 17.349 98.41 23.187 16.011 2.655 32.446 4.827 49.21 6.353 11.788-11.042 24.526-21.095 38.422-29.492 10.823-6.659 22.334-12.281 34.383-16.474 12.184-3.981 24.442-7.231 37.1-9.288 6.391-0.914 12.928-1.329 19.605-1.078 14.904 0.563 36.295 6.279 37.698 24.362 0.431 5.539-0.763 10.392-3.154 14.646-11.724 20.896-52.235 27.461-70.82 30.415-14.653 2.327-29.608 3.022-44.424 3.009zM407.569 420.159c-6.98-10.813-13.713-20.539-20.056-29.096-15.534-21.137-33.276-46.243-58.964-55.63-4.879-1.783-11.302-3.624-18.074-3.225-6.031 0.354-11.978 3.012-11.705 9.864 0.135 3.585 1.889 8.158 4.58 12.651 2.945 4.927 6.591 9.445 10.54 13.6 8.461 8.889 19.158 17.504 31.465 25.482 18.875 12.245 41.409 23.268 66.527 33.103-1.445-2.285-2.887-4.557-4.312-6.749zM495.175 691.327c-1.937 11.309-2.23 22.775-1.039 33.801 0.592 5.513 1.715 10.894 3.341 15.937 1.377 4.28 4.351 14.727 9.095 16.069 7.82 2.214 10.224-14.575 11.109-19.325 5.040-27.020 0.599-57.069-5.448-83.574-0.962-4.216-2.034-8.364-3.131-12.496-1.873 5.152-3.659 10.321-5.304 15.515-3.54 11.344-6.778 22.82-8.622 34.075zM548.865 478.023c-29.382-4.763-57.333-11.003-83.606-18.37 3.164 0.885 17.62 28.282 20.844 33.968 15.193 26.76 27.622 54.845 36.553 84.308 15.769-31.188 34.908-61.024 58.42-87.581 2.166-2.41 4.367-4.792 6.607-7.144-13.175-1.419-26.142-3.147-38.818-5.181zM747.571 440.389c-1.075-5.809-13.481-9.13-19.271-10.044-17.108-2.69-35.207-0.537-51.582 4.963-11.235 3.772-22.071 8.908-32.366 15.087-10.234 6.182-19.808 13.455-28.758 21.475 11.035 0.663 22.206 1.097 33.431 0.885 11.225-0.113 22.537-0.679 33.711-2.137 20.954-2.336 44.434-9.529 60.927-23.126 3.247-2.681 4.283-5.049 3.907-7.103zM510.391 208.892h-53.442v-154.407h49.956c25.698 0 45.644 6.971 59.83 20.912s21.282 33.795 21.282 59.566c0 23.937-6.745 42.246-20.227 54.919-13.484 12.673-32.617 19.010-57.4 19.010zM535.844 99.74c-5.915-7.36-15.209-11.039-27.883-11.039h-9.294v86.496h12.142c11.409 0 19.911-3.415 25.508-10.244 5.596-6.832 8.396-17.32 8.396-31.474 0.003-15.135-2.954-26.383-8.869-33.74zM417.661 196.113c-9.787 8.519-24.433 12.78-43.935 12.78h-53.442v-154.407h41.718v51.224h11.724c18.727 0 33.177 4.699 43.356 14.099 10.173 9.397 15.261 22.724 15.261 39.974-0.003 15.702-4.895 27.812-14.682 36.331zM384.552 144.995c-3.698-3.521-8.68-5.281-14.945-5.281h-7.605v35.484h10.775c11.547 0 17.32-5.21 17.32-15.631-0.003-6.192-1.85-11.051-5.545-14.572zM615.691 54.485h41.084v57.983h46.259v33.479h-46.259v29.466h50.169v33.479h-91.253z" />
<glyph unicode="&#xe916;" glyph-name="posts" d="M182.84-17h-72.84l38 61.040c0.2 0.32 22.22 36.6 39.2 96.46-122.64 72.16-187.2 191.94-187.2 348.5 0 72.4 13.84 137.42 41.16 193.28 27.035 54.37 65.54 99.387 112.598 133.272l1.062 0.728c87.58 63.28 211.18 96.72 357.18 96.72s269.6-33.44 357.18-96.72c48.12-34.613 86.625-79.63 112.722-131.924l0.938-2.076c27.32-55.86 41.16-120.88 41.16-193.28s-13.84-137.42-41.16-193.28c-27.035-54.37-65.54-99.387-112.598-133.272l-1.062-0.728c-87.58-63.28-211.080-96.72-357.18-96.72-0.671-0.002-1.465-0.003-2.259-0.003-40.713 0-80.762 2.843-119.96 8.342l4.518-0.519c-84.66-84.92-188.76-89.82-211.46-89.82zM512 833c-129.16 0-236.48-28.2-310.32-81.56-80.74-58.44-121.68-146.64-121.68-262.44 0-137.76 57.64-236 171.3-292.1l28.16-13.9-6.8-30.64c-6.801-30.582-14.644-56.523-24.15-81.645l1.35 4.065c39.741 13.55 73.261 36.631 99.011 66.583l0.249 0.297 14.74 17.12 22.28-3.78c36.808-6.368 79.199-10.008 122.44-10.008 1.203 0 2.404 0.003 3.606 0.008l-0.186-0.001c129.16 0 236.48 28.2 310.32 81.56 80.74 58.34 121.68 146.64 121.68 262.44s-40.94 204-121.68 262.44c-73.84 53.36-181.16 81.56-310.32 81.56zM373.96 488.44c0-37.798-30.642-68.44-68.44-68.44s-68.44 30.642-68.44 68.44c0 37.798 30.642 68.44 68.44 68.44s68.44-30.642 68.44-68.44zM579.3 488.44c0-37.798-30.642-68.44-68.44-68.44s-68.44 30.642-68.44 68.44c0 37.798 30.642 68.44 68.44 68.44s68.44-30.642 68.44-68.44zM786.92 488.44c0-37.798-30.642-68.44-68.44-68.44s-68.44 30.642-68.44 68.44c0 37.798 30.642 68.44 68.44 68.44s68.44-30.642 68.44-68.44z" />
<glyph unicode="&#xe917;" glyph-name="rar" d="M342.477 412.004v-0.006l31.294-31.297c4.528-4.528 10.665-7.070 17.069-7.070h158.749c3.472 0 6.903 0.75 10.057 2.195l61.977 28.41v-13.999h-9.433v-48.273h67.139v48.273h-9.436v14.498h9.436c13.333 0 24.137 10.807 24.137 24.137s-10.804 24.137-24.137 24.137h-9.436v17.687l13.98 2.681c13.092 2.51 21.668 15.158 19.161 28.25-2.51 13.095-15.19 21.678-28.25 19.161l-4.892-0.937v11.222l13.98 2.681c13.092 2.51 21.668 15.158 19.161 28.25-2.51 13.095-15.19 21.681-28.25 19.161l-4.892-0.937v11.219l13.98 2.681c13.092 2.51 21.668 15.158 19.161 28.25-2.51 13.095-15.19 21.684-28.25 19.161l-4.892-0.94v10.929h9.436c13.333 0 24.137 10.807 24.137 24.137s-10.804 24.137-24.137 24.137h-56.618l-63.068 28.909c-3.154 1.445-6.584 2.195-10.057 2.195h-158.749c-6.401 0-12.541-2.542-17.069-7.070l-31.291-31.294h-29.695c-13.33 0-24.137-10.807-24.137-24.137v-232.262c0-13.33 10.807-24.137 24.137-24.137h29.695zM565.123 673.089l42.268-19.374c3.154-1.445 6.584-2.195 10.057-2.195h4.177v-20.185l-13.977-2.678c-13.092-2.51-21.668-15.158-19.161-28.25 2.214-11.557 12.332-19.596 23.676-19.596 1.509 0 3.038 0.142 4.573 0.438l4.888 0.937v-11.219l-13.977-2.681c-13.092-2.51-21.668-15.158-19.161-28.25 2.214-11.557 12.332-19.596 23.676-19.596 1.509 0 3.038 0.142 4.573 0.438l4.888 0.937v-11.222l-13.977-2.681c-13.092-2.51-21.668-15.158-19.161-28.25 2.214-11.557 12.332-19.596 23.676-19.596 1.509 0 3.038 0.142 4.573 0.438l4.888 0.937v-8.432h-4.177c-3.472 0-6.903-0.75-10.057-2.195l-42.268-19.374c0.303 1.522 0.467 3.089 0.467 4.695v232.259c-0.003 1.606-0.167 3.173-0.467 4.692zM336.922 644.26h180.391v-67.859h-180.391v67.859zM336.922 528.127h180.391v-67.856h-180.391v67.856zM385.9 519.914h82.435v-48.273h-82.435v48.273zM911.237 790.329l-162.598 162.601c-4.528 4.528-10.665 7.070-17.069 7.070h-601.74c-13.33 0-24.137-10.807-24.137-24.137v-975.727c0-13.33 10.807-24.137 24.137-24.137h764.341c13.333 0 24.137 10.807 24.137 24.137v813.126c0 6.401-2.542 12.538-7.070 17.066zM755.706 877.594l80.192-80.195h-80.192v80.195zM153.966 911.727h553.47v-33.029h-553.47v33.029zM870.034-15.727h-716.068v846.151h553.47v-57.165c0-13.33 10.804-24.137 24.137-24.137h138.461v-764.849zM718.343 163.268c0 30.415-20.983 45.625-62.945 45.625h-50.59v-154.407h41.718v56.187h10.559l32.742-56.187h47.314l-44.991 67.277c17.462 9.783 26.193 23.622 26.193 41.505zM654.339 142.037h-7.814v35.275h8.239c14.292 0 21.44-5.317 21.44-15.95 0-12.883-7.286-19.325-21.865-19.325zM385.9 636.25h82.435v-48.273h-82.435v48.273zM481.456 209.526v0l-49.519-152.386-43.214 64.619c17.462 9.787 26.193 23.622 26.193 41.509 0 30.415-20.983 45.625-62.945 45.625h-50.59v-154.407h41.718v56.187h10.562l32.742-56.187h90.509l7.814 28.938h50.172l7.598-28.938h45.628l-51.009 155.041h-55.659zM350.912 142.037h-7.817v35.275h8.239c14.292 0 21.44-5.317 21.44-15.95 0-12.883-7.286-19.325-21.861-19.325zM493.386 117.64v0.003c6.404 24.22 10.546 40.45 12.413 48.688 1.86 8.235 3.112 14.151 3.746 17.742 0.705-3.875 2.169-10.279 4.38-19.222 2.217-8.943 4.103-16.229 5.651-21.865l6.655-25.347h-32.845z" />
<glyph unicode="&#xe918;" glyph-name="search" d="M971.662 44.544l-231.879 245.532c57.639 69.434 92.615 159.481 92.615 257.697 0 0.043 0 0.087 0 0.13v-0.007c-4.215 214.038-178.719 385.934-393.372 385.934-217.293 0-393.444-176.151-393.444-393.444 0-217.268 176.11-393.402 393.368-393.444h0.004c0.255-0.001 0.557-0.001 0.859-0.001 84.299 0 162.24 27.22 225.514 73.351l-1.093-0.759 233.7-247.58c9.31-9.819 22.449-15.929 37.015-15.929 0.027 0 0.053 0 0.080 0h-0.004c0.031 0 0.068 0 0.105 0 13.804 0 26.31 5.562 35.397 14.567l-0.004-0.004c9.708 9.613 15.718 22.944 15.718 37.679 0 14.047-5.462 26.817-14.379 36.304l0.026-0.028zM438.727 843.947c1.557 0.030 3.394 0.046 5.234 0.046 163.378 0 295.822-132.444 295.822-295.822s-132.444-295.822-295.822-295.822c-163.362 0-295.796 132.418-295.822 295.774v0.002c-0.005 0.614-0.007 1.339-0.007 2.065 0 161.13 129.722 291.961 290.426 293.756l0.17 0.001zM438.727 843.947" />
<glyph unicode="&#xe919;" glyph-name="service" d="M182.84-17h-72.84l38 61.040c0.2 0.32 22.22 36.6 39.2 96.46-122.64 72.16-187.2 191.94-187.2 348.5 0 72.4 13.84 137.42 41.16 193.28 27.035 54.37 65.54 99.387 112.598 133.272l1.062 0.728c87.58 63.28 211.18 96.72 357.18 96.72s269.6-33.44 357.18-96.72c48.12-34.613 86.625-79.63 112.722-131.924l0.938-2.076c27.32-55.86 41.16-120.88 41.16-193.28s-13.84-137.42-41.16-193.28c-27.035-54.37-65.54-99.387-112.598-133.272l-1.062-0.728c-87.58-63.28-211.080-96.72-357.18-96.72-0.671-0.002-1.465-0.003-2.259-0.003-40.713 0-80.762 2.843-119.96 8.342l4.518-0.519c-84.66-84.92-188.76-89.82-211.46-89.82zM512 833c-129.16 0-236.48-28.2-310.32-81.56-80.74-58.44-121.68-146.64-121.68-262.44 0-137.76 57.64-236 171.3-292.1l28.16-13.9-6.8-30.64c-6.801-30.582-14.644-56.523-24.15-81.645l1.35 4.065c39.741 13.55 73.261 36.631 99.011 66.583l0.249 0.297 14.74 17.12 22.28-3.78c36.808-6.368 79.199-10.008 122.44-10.008 1.203 0 2.404 0.003 3.606 0.008l-0.186-0.001c129.16 0 236.48 28.2 310.32 81.56 80.74 58.34 121.68 146.64 121.68 262.44s-40.94 204-121.68 262.44c-73.84 53.36-181.16 81.56-310.32 81.56zM528.98 639.5c37.555 0 68 30.445 68 68s-30.445 68-68 68c-37.555 0-68-30.445-68-68v0c0-37.555 30.445-68 68-68v0zM528.98 741.38c18.778 0 34-15.222 34-34s-15.222-34-34-34c-18.778 0-34 15.222-34 34v0c0 18.778 15.222 34 34 34v0zM580 605.54h-136c-9.378 0-16.98-7.602-16.98-16.98v0-68c0-9.378 7.602-16.98 16.98-16.98v0h16.98v-254.58c0-0.006 0-0.013 0-0.020 0-9.378 7.602-16.98 16.98-16.98 0.014 0 0.028 0 0.042 0h101.998c9.378 0 16.98 7.602 16.98 16.98v0 339.58c0 9.378-7.602 16.98-16.98 16.98v0zM563.020 265.96h-68v254.68c0 0.006 0 0.013 0 0.020 0 9.367-7.593 16.96-16.96 16.96-0.007 0-0.014 0-0.021 0h-16.979v34h101.88z" />
<glyph unicode="&#xe91a;" glyph-name="setting" d="M579.48-64h-134.96l-36.28 136.4c-33.644 9.424-62.992 21.971-90.222 37.766l1.842-0.986-121.14-69.76-95.3 95.3 69.76 121.14c-14.809 25.388-27.356 54.736-36.124 85.673l-0.656 2.707-136.4 36.28v134.96l136.4 36.28c9.428 33.646 21.967 62.994 37.749 90.229l-0.989-1.849-69.74 121.14 95.28 95.3 121.16-69.74c25.385 14.788 54.731 27.333 85.659 36.119l2.721 0.661 36.28 136.38h134.96l36.28-136.4c33.646-9.428 62.994-21.967 90.229-37.749l-1.849 0.989 121.14 69.74 95.3-95.3-69.76-121.14c14.805-25.387 27.351-54.735 36.123-85.67l0.657-2.71 136.4-36.28v-134.96l-136.4-36.28c-9.428-33.646-21.967-62.994-37.749-90.229l0.989 1.849 69.74-121.16-95.28-95.28-121.16 69.74c-25.385-14.788-54.731-27.333-85.659-36.119l-2.721-0.661zM506 16h12l32.94 123.82 24.2 5.020c40.346 8.554 76.025 23.918 107.576 44.981l-1.116-0.701 20.58 13.52 110-63.3 8.58 8.58-63.28 110 13.5 20.58c20.362 30.435 35.726 66.114 43.92 104.451l0.36 2.009 5.020 24.2 123.72 32.84v12l-123.84 32.94-5 24.2c-8.554 40.346-23.918 76.025-44.981 107.576l0.701-1.116-13.5 20.58 63.28 110-8.66 8.48-110-63.28-20.58 13.5c-30.427 20.366-66.101 35.73-104.433 43.921l-2.007 0.359-24.2 5-32.78 123.84h-12l-32.94-123.84-24.2-5c-40.346-8.554-76.025-23.918-107.576-44.981l1.116 0.701-20.58-13.5-110 63.28-8.48-8.66 63.28-110-13.5-20.58c-20.362-30.435-35.726-66.114-43.92-104.451l-0.36-2.009-5.020-24.2-123.82-32.76v-12l123.84-32.94 5-24.18c8.55-40.353 23.915-76.040 44.981-107.596l-0.701 1.116 13.5-20.58-63.28-110 8.58-8.58 110 63.3 20.58-13.52c30.435-20.362 66.114-35.726 104.451-43.92l2.009-0.36 24.2-5zM512 216c-128.13 0-232 103.87-232 232s103.87 232 232 232c128.13 0 232-103.87 232-232v0c-0.148-128.071-103.929-231.852-231.986-232h-0.014zM512 600c-83.947 0-152-68.053-152-152s68.053-152 152-152c83.947 0 152 68.053 152 152v0c-0.091 83.911-68.089 151.909-151.991 152h-0.009z" />
<glyph unicode="&#xe91b;" glyph-name="share" d="M852 280c-0.051 0-0.111 0-0.172 0-27.545 0-53.568-6.515-76.612-18.088l0.984 0.448-155.4 185.64 155.4 185.64c22.224-11.193 48.437-17.747 76.18-17.747 95.203 0 172.38 77.177 172.38 172.38s-77.177 172.38-172.38 172.38c-95.203 0-172.38-77.177-172.38-172.38 0-39.074 13.001-75.112 34.913-104.023l-0.312 0.43-164.6-196.68h-210.74c-18.698 76.286-86.485 132-167.284 132-94.993 0-172-77.007-172-172s77.007-172 172-172c80.799 0 148.586 55.714 167.039 130.82l0.245 1.18h210.74l164.64-196.68c-21.531-28.41-34.49-64.352-34.49-103.32 0-94.993 77.007-172 172-172s172 77.007 172 172c0 94.993-77.007 172-172 172-0.053 0-0.105 0-0.158 0h0.008zM852 880c50.81 0 92-41.19 92-92s-41.19-92-92-92c-50.81 0-92 41.19-92 92v0c0.068 50.783 41.217 91.932 91.993 92h0.007zM172 356c-50.81 0-92 41.19-92 92s41.19 92 92 92c50.81 0 92-41.19 92-92v0c-0.068-50.783-41.217-91.932-91.993-92h-0.007zM852 16c-50.81 0-92 41.19-92 92s41.19 92 92 92c50.81 0 92-41.19 92-92v0c-0.068-50.783-41.217-91.932-91.993-92h-0.007z" />
<glyph unicode="&#xe91c;" glyph-name="task" d="M882.028 820.892c-3.925 5.223-7.942 9.845-12.259 14.168l0.002-0.002c-1.475 1.475-2.994 2.907-4.534 4.339q-4.621 4.231-9.633 7.962c-4.577 3.467-9.754 6.836-15.165 9.833l-0.672 0.342c-3.688 1.996-7.485 3.84-11.39 5.489-6.932 3.038-15.095 5.656-23.564 7.444l-0.842 0.149c-4.231 0.868-8.548 1.519-12.908 1.974s-8.808 0.629-13.299 0.629h-141.95c-18.464 50.952-66.411 86.713-122.72 86.78h-2.178c-56.317-0.067-104.264-35.828-122.44-85.872l-0.288-0.907h-141.95c-4.491 0-8.917-0.239-13.299-0.673s-8.678-1.106-12.908-1.974c-7.219-1.503-13.416-3.32-19.403-5.567l0.897 0.295c-12.655-4.693-23.605-10.765-33.451-18.219l0.323 0.234q-5.012-3.753-9.633-7.962c-1.54-1.388-3.059-2.82-4.534-4.339-4.315-4.322-8.333-8.944-12.016-13.832l-0.241-0.334c-4.713-6.223-9.047-13.259-12.682-20.698l-0.335-0.759c-1.531-3.025-3.198-6.875-4.669-10.822l-0.278-0.85c-5.029-13.274-7.94-28.621-7.94-44.648 0-0.008 0-0.015 0-0.023v0.001-676.881c0.086-71.856 58.314-130.083 130.161-130.169h531.534c71.856 0.086 130.083 58.314 130.169 130.161v676.889c0 0.045 0 0.098 0 0.152 0 29.297-9.732 56.32-26.139 78.015l0.236-0.325zM467.525 786.441h2.169v43.39c-0.014 0.404-0.022 0.879-0.022 1.355 0 23.376 18.95 42.327 42.327 42.327s42.327-18.95 42.327-42.327c0-0.477-0.008-0.951-0.024-1.424l0.002 0.069v-43.39h86.78v-84.61h-258.169v84.61zM821.153 66.169c0-23.964-19.426-43.39-43.39-43.39v0h-531.525c-23.964 0-43.39 19.426-43.39 43.39v0 676.881c0 23.964 19.426 43.39 43.39 43.39v0h47.729v-171.39h436.068v171.39h47.729c23.964 0 43.39-19.426 43.39-43.39v0-676.881z" />
<glyph unicode="&#xe91d;" glyph-name="txt" d="M701.148 562.485v0h-378.305v-48.273h378.305zM701.148 721.092v0h-378.305v-48.273h378.305zM322.842 641.789h264.567v-48.273h-264.567v48.273zM322.842 483.185h346.097v-48.273h-346.097v48.273zM593.196 174.779h37.701v-120.294h41.718v120.294h37.599v34.113h-117.018zM911.237 790.326l-162.598 162.604c-4.528 4.528-10.665 7.070-17.069 7.070h-601.74c-13.333 0-24.137-10.807-24.137-24.137v-975.727c0-13.33 10.804-24.137 24.137-24.137h764.341c13.333 0 24.137 10.807 24.137 24.137v813.126c0 6.401-2.542 12.538-7.070 17.063zM755.706 877.594l80.192-80.195h-80.192v80.195zM153.966 911.727h553.47v-33.029h-553.47v33.029zM870.034-15.727h-716.068v846.151h553.47v-57.165c0-13.333 10.804-24.137 24.137-24.137h138.461v-764.849zM583.477 208.892h-47.633l-26.827-47.739-27.883 47.739h-46.256l48.161-75.413-51.224-78.998h47.208l29.788 48.267 30.097-48.267h48.267l-52.599 75.725zM308.985 174.779h37.705v-120.294h41.718v120.294h37.599v34.113h-117.021zM322.842 403.881h159.44v-48.273h-159.44v48.273z" />
<glyph unicode="&#xe91e;" glyph-name="user" d="M964.24 360.72l-277.86-309.36-156.8 149.26-55.16-57.94 216.46-206.040 332.88 370.64-59.52 53.44zM779.58 274.86l53.72 59.8c-43.791 35.691-94.828 64.649-150.286 84.245l-3.554 1.095c78.055 54.050 128.535 143.13 128.54 243.999v0.001c0 163.22-132.78 296-296 296s-296-132.78-296-296c0 0 0 0 0-0.001 0-100.867 50.473-189.945 127.54-243.357l0.98-0.643c-202.138-71.731-344.333-261.235-344.52-483.977v-0.023h80c0 238.2 193.8 432 432 432 0.117 0 0.256 0 0.394 0 101.376 0 194.554-35.098 268.046-93.804l-0.861 0.664zM296 664c0 119.294 96.706 216 216 216s216-96.706 216-216c0-119.294-96.706-216-216-216v0c-119.239 0.137-215.864 96.762-216 215.987v0.013z" />
<glyph unicode="&#xe91f;" glyph-name="xls" d="M340.462 351.099h338.271c13.33 0 24.137 10.807 24.137 24.137v338.267c0 13.33-10.807 24.137-24.137 24.137h-338.271c-13.33 0-24.137-10.807-24.137-24.137v-338.267c0-13.33 10.807-24.137 24.137-24.137zM364.599 399.373v40.218c4.206-7.746 12.287-12.651 21.166-12.651h136.459c-1.368-5.387-0.859-11.19 1.638-16.387 2.391-4.975 6.372-8.837 11.141-11.18h-170.405zM364.599 462.588v146.745c0.676-1.242 1.422-2.449 2.327-3.575l55.888-69.794-55.888-69.797c-0.901-1.126-1.651-2.336-2.327-3.579zM436.015 475.213l36.562 45.66c7.061 8.818 7.061 21.356 0 30.174l-36.562 45.66h32.34l13.632-17.021c4.58-5.719 11.512-9.050 18.839-9.050s14.26 3.331 18.839 9.050l13.629 17.021h32.343l-36.559-45.66c-7.061-8.818-7.061-21.356 0-30.174l33.917-42.355c0.972-1.21 2.047-2.317 3.209-3.305h-130.19zM593.096 445.142c0.113 0.441 0.209 0.882 0.296 1.326 0.225-0.447 0.467-0.891 0.721-1.326h-1.017zM591.271 461.912c-1.48 2.941-3.511 5.497-5.938 7.556h8.783c-1.387-2.375-2.336-4.934-2.845-7.556zM654.596 446.426l-8.712 10.878 8.712 10.881v-21.758zM364.596 689.367v0h290.001v-174.106c-3.238 1.58-6.826 2.481-10.565 2.481h-50.603l-14.588 18.218 55.888 69.794c5.799 7.244 6.935 17.172 2.916 25.54-4.020 8.364-12.474 13.684-21.755 13.684h-94.185c-7.328 0-14.26-3.331-18.843-9.050l-2.034-2.542-2.037 2.542c-4.583 5.719-11.512 9.050-18.843 9.050h-94.185c-8.879 0-16.96-4.905-21.166-12.651v57.040zM911.237 790.329l-162.601 162.601c-4.525 4.528-10.662 7.070-17.066 7.070h-601.74c-13.33 0-24.137-10.807-24.137-24.137v-975.727c0-13.33 10.807-24.137 24.137-24.137h764.341c13.33 0 24.137 10.807 24.137 24.137v813.126c0 6.401-2.542 12.538-7.070 17.066zM755.706 877.591l80.192-80.195h-80.192v80.195zM153.966 911.727h553.47v-33.029h-553.47v33.029zM870.034-15.727h-716.068v846.151h553.47v-57.165c0-13.33 10.807-24.137 24.137-24.137h138.461v-764.849zM520.844 208.892h-41.715v-154.407h101.178v33.692h-59.463zM458.111 208.892h-47.633l-26.827-47.739-27.883 47.739h-46.256l48.161-75.409-51.224-78.998h47.208l29.781 48.264 30.1-48.264h48.267l-52.595 75.725zM670.507 146.581c-13.874 6.337-22.373 10.704-25.508 13.098-3.135 2.391-4.699 5.104-4.699 8.132-0.003 2.813 1.226 5.172 3.691 7.074s6.404 2.851 11.83 2.851c10.491 0 22.952-3.312 37.386-9.928l12.78 32.211c-16.616 7.392-32.919 11.090-48.898 11.090-18.096 0-32.317-3.978-42.67-11.933-10.35-7.959-15.521-19.045-15.521-33.267 0-7.605 1.213-14.189 3.643-19.75 2.43-5.564 6.16-10.491 11.196-14.788 5.033-4.296 12.583-8.731 22.653-13.307 11.125-5.001 17.971-8.309 20.545-9.928 2.568-1.619 4.435-3.221 5.596-4.805 1.159-1.583 1.741-3.434 1.741-5.545 0-3.379-1.442-6.144-4.332-8.29-2.89-2.15-7.431-3.221-13.623-3.221-7.18 0-15.068 1.142-23.657 3.434-8.593 2.285-16.863 5.474-24.822 9.558v-37.177c7.534-3.592 14.788-6.108 21.758-7.55s15.596-2.166 25.875-2.166c12.323 0 23.059 2.060 32.214 6.179 9.153 4.119 16.159 9.89 21.015 17.32 4.86 7.428 7.289 15.93 7.289 25.504 0 10.421-2.587 19.065-7.762 25.929-5.172 6.864-14.418 13.288-27.722 19.274z" />
</font>
</defs>
</svg>
